<svg width="146" height="40" viewBox="0 0 146 40" fill="none" xmlns="http://www.w3.org/2000/svg">
  <path d="M43.95 28.53a8.11 8.11 0 0 1-4.93-1.73L40.2 25a6.52 6.52 0 0 0 3.8 1.43c1.15 0 1.8-.48 1.8-1.24v-.03c0-.92-1.23-1.22-2.6-1.62-1.7-.48-3.61-1.18-3.61-3.4v-.03c0-2.2 1.82-3.53 4.13-3.53 1.46 0 3.04.52 4.26 1.3l-1.06 1.9a6.88 6.88 0 0 0-3.29-1.1c-1.03 0-1.61.48-1.61 1.15v.03c0 .83 1.25 1.19 2.62 1.62 1.7.51 3.58 1.3 3.58 3.37v.03c.03 2.44-1.88 3.65-4.28 3.65ZM58.03 16.7h2.64V28.3h-2.64v-1.8c-.76 1.1-1.83 2.04-3.62 2.04-2.62 0-4.14-1.76-4.14-4.47V16.7h2.65v6.6c0 1.8.91 2.83 2.5 2.83 1.54 0 2.6-1.07 2.6-2.89V16.7ZM70.04 28.56a4.7 4.7 0 0 1-3.92-2.04v5.33h-2.65V16.7h2.65v1.95a4.6 4.6 0 0 1 3.92-2.16c2.74 0 5.41 2.16 5.41 6.05 0 3.83-2.64 6.02-5.41 6.02Zm-.6-9.8c-1.8 0-3.38 1.47-3.38 3.75 0 2.28 1.58 3.74 3.37 3.74 1.83 0 3.32-1.43 3.32-3.74 0-2.28-1.52-3.74-3.32-3.74ZM83 26.4c1.3 0 2.22-.48 3.13-1.37l1.55 1.37a5.88 5.88 0 0 1-4.74 2.16 5.8 5.8 0 0 1-5.97-6.05c0-3.35 2.35-6.05 5.66-6.05 3.68 0 5.57 2.89 5.57 6.26 0 .25-.03.46-.03.73h-8.52c.3 1.89 1.61 2.95 3.35 2.95Zm2.58-4.71c-.18-1.7-1.19-3.04-2.95-3.04-1.61 0-2.77 1.24-3.01 3.04h5.96ZM93 28.32h-2.64V16.7H93v2.62c.73-1.74 2.07-2.92 4.1-2.83v2.8h-.14c-2.35 0-3.96 1.52-3.96 4.59v4.44ZM105.62 28.56a4.7 4.7 0 0 1-3.92-2.04v5.33h-2.65V16.7h2.65v1.95a4.6 4.6 0 0 1 3.92-2.16c2.74 0 5.42 2.16 5.42 6.05 0 3.83-2.65 6.02-5.42 6.02Zm-.6-9.8c-1.8 0-3.38 1.47-3.38 3.75 0 2.28 1.58 3.74 3.38 3.74 1.82 0 3.31-1.43 3.31-3.74 0-2.28-1.52-3.74-3.31-3.74ZM118.55 26.4c1.3 0 2.22-.48 3.13-1.37l1.55 1.37a5.88 5.88 0 0 1-4.74 2.16 5.8 5.8 0 0 1-5.96-6.05c0-3.35 2.34-6.05 5.65-6.05 3.68 0 5.57 2.89 5.57 6.26 0 .25-.03.46-.03.73h-8.52c.34 1.89 1.64 2.95 3.35 2.95Zm2.58-4.71c-.18-1.7-1.18-3.04-2.95-3.04-1.6 0-2.76 1.24-3 3.04h5.95ZM131.26 26.4a4.2 4.2 0 0 0 3.13-1.37l1.55 1.37a5.88 5.88 0 0 1-4.74 2.16 5.8 5.8 0 0 1-5.96-6.05c0-3.35 2.34-6.05 5.66-6.05 3.68 0 5.56 2.89 5.56 6.26 0 .25-.03.46-.03.73h-8.52c.34 1.89 1.65 2.95 3.35 2.95Zm2.59-4.71c-.19-1.7-1.19-3.04-2.95-3.04-1.62 0-2.77 1.24-3.02 3.04h5.97ZM141.3 28.32h-2.65V16.7h2.65v2.62c.73-1.74 2.06-2.92 4.1-2.83v2.8h-.15c-2.34 0-3.95 1.52-3.95 4.59v4.44Z" fill="#222"/>
  <path d="M30.66 32.58c-1.34-.28-2.62-.58-3.68-.8l-1.8-.39.21-1.82c0-.1.03-.19.03-.28 0-.4-.06-.76-.2-1.12l-.43-.98.57-.9c.34-.56.5-1.16.5-1.86a3.2 3.2 0 0 0-.62-1.92l-.7-.94.46-1.1c.18-.42.27-.88.27-1.34 0-.63 0-2.55-3-3.7-.43-.16-1.29-.4-2.87-.5l-3.25-.2 1.55-2.83c1.25-2.25 1.95-4.3 1.95-5.72 0-1.31-.43-2.47-1.4-2.86-3.38-1.46-5.78.82-7.48 3.62-1.37 2.28-3.08 5.2-4.11 7.36-2.22 4.68-5.5 8.06-5.5 12.74 0 4.26 2.85 7.6 8.09 9.37 6.41 2.16 16 2.74 20.16 2.74 2.98 0 4.62-1.16 4.62-3.29 0-2.22-2.1-3.01-3.37-3.28Z" fill="#FFD338"/>
  <path d="M29.32 30.7c-3.47-.77-6.45-1.4-6.45-1.4a2.6 2.6 0 0 0 1.06-2.08c0-1.1-.57-1.73-1.03-2.06a3.31 3.31 0 0 0 1.43-2.77c0-1.61-1.1-2.43-1.67-2.83a3.41 3.41 0 0 0 1.1-2.46c0-2.1-1.62-3.04-2.93-3.56-1.06-.4-3.07-.55-4.83-.55-2.9 0-5.5.21-6.75.21-1.5 0-1.31-.76-.76-1.46.33-.4 4.56-5.96 5.35-6.96.55-.73 1.18-1.43 1.67-1.16.52.28.3 1.55-.24 2.95-.82 2.2-1.98 3.6-2.25 4.08l1.94 1.19c.76-.95 3.23-5.05 3.23-7.7 0-1.19-.46-2.19-1.34-2.74-.88-.51-2-.48-3.01.13a7.1 7.1 0 0 0-1.92 1.7L6 10.77c-1.7 2.22-.91 4.96 2.7 4.96 1.29 0 5.45-.3 7.06-.3 1.86 0 2.77.08 3.41.18 1.22.18 1.92.73 1.92 1.46 0 .51-.25.88-.67 1.18-.43.3-.82.76-.82 1.4 0 .76.7 1.07 1.15 1.37.61.4.97.67.97 1.3 0 .59-.42.92-.9 1.28-.4.3-.92.64-.92 1.34 0 .64.46.95.76 1.19s.64.52.64 1.03c0 .52-.24.76-.85 1.13-.49.27-1.19.79-1.19 1.52 0 .82.58 1.18 1.28 1.37 1.67.4 6.66 1.46 8.36 1.85.55.12 1.1.3 1.1.76s-.73.67-1.77.67c-3.59 0-13.56-.73-19.43-2.77-3.98-1.33-6.17-3.8-6.17-6.75 0-2.55 1.7-4.83 3.55-6.14L4.5 17.1C1.82 18.95 0 21.9 0 25c0 3.6 2.13 7.24 8 9.22 6.23 2.1 15.7 2.74 20.1 2.74 3.01 0 4.47-1.25 4.47-3.14-.03-1.8-1.49-2.76-3.25-3.13Z" fill="#222"/>
</svg>